{
  "accessors": [
    {
      "bufferView": 2,
      "componentType": 5126,
      "count": 82,
      "max": [
        166.2577667236328,
        72.16034698486328,
        63.081703186035156
      ],
      "min": [
        -151.5717315673828,
        -24.15530014038086,
        -63.118099212646484
      ],
      "type": "VEC3"
    },
    {
      "bufferView": 2,
      "byteOffset": 984,
      "componentType": 5126,
      "count": 82,
      "max": [
        0.999997615814209,
        0.4714069664478302,
        1.0
      ],
      "min": [
        -0.9999980926513672,
        -0.417287141084671,
        -1.0
      ],
      "type": "VEC3"
    },
    {
      "bufferView": 3,
      "componentType": 5126,
      "count": 82,
      "max": [
        1.0,
        0.0016541661461815238,
        0.9999976754188538,
        1.0
      ],
      "min": [
        -1.0,
        -1.0,
        -0.04671843349933624,
        -1.0
      ],
      "type": "VEC4"
    },
    {
      "bufferView": 1,
      "componentType": 5126,
      "count": 82,
      "max": [
        0.958301842212677,
        0.9999999403953552
      ],
      "min": [
        0.20778100192546844,
        1.6689300537109375e-06
      ],
      "type": "VEC2"
    },
    {
      "bufferView": 1,
      "byteOffset": 656,
      "componentType": 5126,
      "count": 82,
      "max": [
        0.958301842212677,
        0.9999999403953552
      ],
      "min": [
        0.20778100192546844,
        1.6689300537109375e-06
      ],
      "type": "VEC2"
    },
    {
      "bufferView": 1,
      "byteOffset": 1312,
      "componentType": 5126,
      "count": 82,
      "max": [
        0.958301842212677,
        0.9999999403953552
      ],
      "min": [
        0.20778100192546844,
        1.6689300537109375e-06
      ],
      "type": "VEC2"
    },
    {
      "bufferView": 1,
      "byteOffset": 1968,
      "componentType": 5126,
      "count": 82,
      "max": [
        0.958301842212677,
        0.9999999403953552
      ],
      "min": [
        0.20778100192546844,
        1.6689300537109375e-06
      ],
      "type": "VEC2"
    },
    {
      "bufferView": 1,
      "byteOffset": 2624,
      "componentType": 5126,
      "count": 82,
      "max": [
        0.958301842212677,
        0.9999999403953552
      ],
      "min": [
        0.20778100192546844,
        1.6689300537109375e-06
      ],
      "type": "VEC2"
    },
    {
      "bufferView": 0,
      "componentType": 5125,
      "count": 264,
      "type": "SCALAR"
    },
    {
      "bufferView": 2,
      "byteOffset": 1968,
      "componentType": 5126,
      "count": 4835,
      "max": [
        170.9160614013672,
        95.49820709228516,
        87.3722152709961
      ],
      "min": [
        -154.83200073242188,
        -79.34739685058594,
        -87.34700012207031
      ],
      "type": "VEC3"
    },
    {
      "bufferView": 2,
      "byteOffset": 59988,
      "componentType": 5126,
      "count": 4835,
      "max": [
        0.9999988079071045,
        0.999997615814209,
        1.0
      ],
      "min": [
        -0.9999980926513672,
        -0.999997615814209,
        -1.0
      ],
      "type": "VEC3"
    },
    {
      "bufferView": 3,
      "byteOffset": 1312,
      "componentType": 5126,
      "count": 4835,
      "max": [
        1.0,
        1.0,
        1.0,
        1.0
      ],
      "min": [
        -1.0,
        -1.0,
        -1.0,
        -1.0
      ],
      "type": "VEC4"
    },
    {
      "bufferView": 1,
      "byteOffset": 3280,
      "componentType": 5126,
      "count": 4835,
      "max": [
        0.9999982118606567,
        1.0000011920928955
      ],
      "min": [
        -2.3409501004323374e-09,
        0.005941450595855713
      ],
      "type": "VEC2"
    },
    {
      "bufferView": 1,
      "byteOffset": 41960,
      "componentType": 5126,
      "count": 4835,
      "max": [
        0.9999982118606567,
        1.0000011920928955
      ],
      "min": [
        -2.3409501004323374e-09,
        0.005941450595855713
      ],
      "type": "VEC2"
    },
    {
      "bufferView": 1,
      "byteOffset": 80640,
      "componentType": 5126,
      "count": 4835,
      "max": [
        0.9999982118606567,
        1.0000011920928955
      ],
      "min": [
        -2.3409501004323374e-09,
        0.005941450595855713
      ],
      "type": "VEC2"
    },
    {
      "bufferView": 1,
      "byteOffset": 119320,
      "componentType": 5126,
      "count": 4835,
      "max": [
        0.9999982118606567,
        1.0000011920928955
      ],
      "min": [
        -2.3409501004323374e-09,
        0.005941450595855713
      ],
      "type": "VEC2"
    },
    {
      "bufferView": 1,
      "byteOffset": 158000,
      "componentType": 5126,
      "count": 4835,
      "max": [
        0.9999982118606567,
        1.0000011920928955
      ],
      "min": [
        -2.3409501004323374e-09,
        0.005941450595855713
      ],
      "type": "VEC2"
    },
    {
      "bufferView": 0,
      "byteOffset": 1056,
      "componentType": 5125,
      "count": 12546,
      "type": "SCALAR"
    }
  ],
  "asset": {
    "extras": {
      "author": "mortalityrexotable (https://sketchfab.com/mortalityrexotable)",
      "license": "CC-BY-4.0 (http://creativecommons.org/licenses/by/4.0/)",
      "source": "https://sketchfab.com/3d-models/van-realistic-abandoned-pbr-low-poly-e6d6f69a2bf748789f60066ffa9371a6",
      "title": "van realistic abandoned PBR low poly"
    },
    "generator": "Sketchfab-16.72.0",
    "version": "2.0"
  },
  "bufferViews": [
    {
      "buffer": 0,
      "byteLength": 51240,
      "name": "floatBufferViews",
      "target": 34963
    },
    {
      "buffer": 0,
      "byteLength": 196680,
      "byteOffset": 51240,
      "byteStride": 8,
      "name": "floatBufferViews",
      "target": 34962
    },
    {
      "buffer": 0,
      "byteLength": 118008,
      "byteOffset": 247920,
      "byteStride": 12,
      "name": "floatBufferViews",
      "target": 34962
    },
    {
      "buffer": 0,
      "byteLength": 78672,
      "byteOffset": 365928,
      "byteStride": 16,
      "name": "floatBufferViews",
      "target": 34962
    }
  ],
  "buffers": [
    {
      "byteLength": 444600,
      "uri": "scene.bin"
    }
  ],
  "images": [
    {
      "uri": "textures/Material_2984_baseColor.png"
    },
    {
      "uri": "textures/Material_2984_metallicRoughness.png"
    },
    {
      "uri": "textures/Material_2984_normal.png"
    },
    {
      "uri": "textures/stepvan_baseColor.png"
    }
  ],
  "materials": [
    {
      "alphaMode": "BLEND",
      "doubleSided": true,
      "name": "Material_2984",
      "normalTexture": {
        "index": 2
      },
      "occlusionTexture": {
        "index": 1
      },
      "pbrMetallicRoughness": {
        "baseColorTexture": {
          "index": 0
        },
        "metallicFactor": 0.0,
        "metallicRoughnessTexture": {
          "index": 1
        }
      }
    },
    {
      "doubleSided": true,
      "name": "stepvan",
      "normalTexture": {
        "index": 2
      },
      "occlusionTexture": {
        "index": 1
      },
      "pbrMetallicRoughness": {
        "baseColorTexture": {
          "index": 3
        },
        "metallicFactor": 0.0,
        "metallicRoughnessTexture": {
          "index": 1
        }
      }
    }
  ],
  "meshes": [
    {
      "name": "Object_0",
      "primitives": [
        {
          "attributes": {
            "NORMAL": 1,
            "POSITION": 0,
            "TANGENT": 2,
            "TEXCOORD_0": 3,
            "TEXCOORD_1": 4,
            "TEXCOORD_2": 5,
            "TEXCOORD_3": 6,
            "TEXCOORD_4": 7
          },
          "indices": 8,
          "material": 0,
          "mode": 4
        }
      ]
    },
    {
      "name": "Object_1",
      "primitives": [
        {
          "attributes": {
            "NORMAL": 10,
            "POSITION": 9,
            "TANGENT": 11,
            "TEXCOORD_0": 12,
            "TEXCOORD_1": 13,
            "TEXCOORD_2": 14,
            "TEXCOORD_3": 15,
            "TEXCOORD_4": 16
          },
          "indices": 17,
          "material": 1,
          "mode": 4
        }
      ]
    }
  ],
  "nodes": [
    {
      "children": [
        1
      ],
      "matrix": [
        1.0,
        0.0,
        0.0,
        0.0,
        0.0,
        2.220446049250313e-16,
        -1.0,
        0.0,
        0.0,
        1.0,
        2.220446049250313e-16,
        0.0,
        0.0,
        0.0,
        0.0,
        1.0
      ],
      "name": "Sketchfab_model"
    },
    {
      "children": [
        2
      ],
      "name": "root"
    },
    {
      "children": [
        3
      ],
      "matrix": [
        1.0,
        0.0,
        0.0,
        0.0,
        0.0,
        2.220446049250313e-16,
        1.0,
        0.0,
        0.0,
        -1.0,
        2.220446049250313e-16,
        0.0,
        0.0,
        0.0,
        0.0,
        1.0
      ],
      "name": "GLTF_SceneRootNode"
    },
    {
      "children": [
        4
      ],
      "name": "untitled.glb_0"
    },
    {
      "children": [
        5
      ],
      "matrix": [
        -4.663567531213125e-16,
        -7.824167980174934e-09,
        -0.03281693905591965,
        0.0,
        -0.03281693905591965,
        -4.663567531213125e-16,
        0.0,
        0.0,
        0.0,
        0.03281693905591965,
        -7.824168868353354e-09,
        0.0,
        0.5843325853347778,
        0.0,
        -6.12638521194458,
        1.0
      ],
      "name": "Abandoned_Stepvanfbx_1"
    },
    {
      "children": [
        6
      ],
      "matrix": [
        1.0,
        0.0,
        0.0,
        0.0,
        0.0,
        1.0,
        0.0,
        0.0,
        0.0,
        0.0,
        1.0,
        0.0,
        1.632009843888227e-05,
        -2.541110006859526e-06,
        0.0,
        1.0
      ],
      "name": "RootNode002_2"
    },
    {
      "children": [
        7,
        9
      ],
      "matrix": [
        -5.627640575767145e-10,
        1.000000238418579,
        1.7880969949146674e-07,
        0.0,
        4.7624114813515916e-05,
        -3.581991734336043e-07,
        1.0000001192092896,
        0.0,
        1.0000001192092896,
        -1.7880969949146674e-07,
        -4.7803496272535995e-05,
        0.0,
        0.0037912295665591955,
        -3.720292806625366,
        79.62451171875,
        1.0
      ],
      "name": "LOW001_3"
    },
    {
      "children": [
        8
      ],
      "matrix": [
        1.0,
        0.0,
        0.0,
        0.0,
        0.0,
        1.0,
        0.0,
        0.0,
        0.0,
        0.0,
        1.0,
        0.0,
        0.0,
        4.623264430847485e-06,
        0.0,
        1.0
      ],
      "name": "LOW001_Material_#2984_0_4"
    },
    {
      "mesh": 0,
      "name": "Object_8"
    },
    {
      "children": [
        10
      ],
      "matrix": [
        1.0,
        0.0,
        0.0,
        0.0,
        0.0,
        1.0,
        0.0,
        0.0,
        0.0,
        0.0,
        1.0,
        0.0,
        0.0,
        4.623264430847485e-06,
        0.0,
        1.0
      ],
      "name": "LOW001_stepvan_0_5"
    },
    {
      "mesh": 1,
      "name": "Object_10"
    }
  ],
  "samplers": [
    {
      "magFilter": 9729,
      "minFilter": 9987,
      "wrapS": 10497,
      "wrapT": 10497
    }
  ],
  "scene": 0,
  "scenes": [
    {
      "name": "Sketchfab_Scene",
      "nodes": [
        0
      ]
    }
  ],
  "textures": [
    {
      "sampler": 0,
      "source": 0
    },
    {
      "sampler": 0,
      "source": 1
    },
    {
      "sampler": 0,
      "source": 2
    },
    {
      "sampler": 0,
      "source": 3
    }
  ]
}
