{
  "accessors": [
    {
      "bufferView": 2,
      "componentType": 5126,
      "count": 2677,
      "max": [
        104.93692016601563,
        38.54186248779297,
        40.16259765625
      ],
      "min": [
        -99.1104965209961,
        -30.457799911499023,
        -40.162498474121094
      ],
      "type": "VEC3"
    },
    {
      "bufferView": 2,
      "byteOffset": 32124,
      "componentType": 5126,
      "count": 2677,
      "max": [
        0.999997615814209,
        0.999997615814209,
        1.0
      ],
      "min": [
        -0.9998836517333984,
        -0.999997615814209,
        -1.0
      ],
      "type": "VEC3"
    },
    {
      "bufferView": 3,
      "componentType": 5126,
      "count": 2677,
      "max": [
        0.9999985694885254,
        0.9662612676620483,
        0.9999977946281433,
        1.0
      ],
      "min": [
        -0.9998778104782104,
        -1.0,
        -0.9999980330467224,
        -1.0
      ],
      "type": "VEC4"
    },
    {
      "bufferView": 1,
      "componentType": 5126,
      "count": 2677,
      "max": [
        0.9999796152114868,
        0.9975612759590149
      ],
      "min": [
        0.004830449819564819,
        2.0384788513183594e-05
      ],
      "type": "VEC2"
    },
    {
      "bufferView": 1,
      "byteOffset": 21416,
      "componentType": 5126,
      "count": 2677,
      "max": [
        0.9999796152114868,
        0.9975612759590149
      ],
      "min": [
        0.004830449819564819,
        2.0384788513183594e-05
      ],
      "type": "VEC2"
    },
    {
      "bufferView": 1,
      "byteOffset": 42832,
      "componentType": 5126,
      "count": 2677,
      "max": [
        0.9999796152114868,
        0.9975612759590149
      ],
      "min": [
        0.004830449819564819,
        2.0384788513183594e-05
      ],
      "type": "VEC2"
    },
    {
      "bufferView": 1,
      "byteOffset": 64248,
      "componentType": 5126,
      "count": 2677,
      "max": [
        0.9999796152114868,
        0.9975612759590149
      ],
      "min": [
        0.004830449819564819,
        2.0384788513183594e-05
      ],
      "type": "VEC2"
    },
    {
      "bufferView": 1,
      "byteOffset": 85664,
      "componentType": 5126,
      "count": 2677,
      "max": [
        0.9999796152114868,
        0.9975612759590149
      ],
      "min": [
        0.004830449819564819,
        2.0384788513183594e-05
      ],
      "type": "VEC2"
    },
    {
      "bufferView": 0,
      "componentType": 5125,
      "count": 10260,
      "type": "SCALAR"
    },
    {
      "bufferView": 2,
      "byteOffset": 64248,
      "componentType": 5126,
      "count": 128,
      "max": [
        98.81912994384766,
        36.2115364074707,
        35.42987060546875
      ],
      "min": [
        -63.71390151977539,
        -3.5602400302886963,
        -35.429901123046875
      ],
      "type": "VEC3"
    },
    {
      "bufferView": 2,
      "byteOffset": 65784,
      "componentType": 5126,
      "count": 128,
      "max": [
        0.9999980926513672,
        0.6460169553756714,
        0.9876629114151001
      ],
      "min": [
        -0.7682031393051147,
        -0.3964989185333252,
        -0.98766028881073
      ],
      "type": "VEC3"
    },
    {
      "bufferView": 3,
      "byteOffset": 42832,
      "componentType": 5126,
      "count": 128,
      "max": [
        0.9998749494552612,
        0.2495577484369278,
        0.999997615814209,
        1.0
      ],
      "min": [
        -0.41718605160713196,
        -0.24963337182998657,
        -0.9999980926513672,
        -1.0
      ],
      "type": "VEC4"
    },
    {
      "bufferView": 1,
      "byteOffset": 107080,
      "componentType": 5126,
      "count": 128,
      "max": [
        0.8425158262252808,
        0.9951841235160828
      ],
      "min": [
        0.004830449819564819,
        0.26428478956222534
      ],
      "type": "VEC2"
    },
    {
      "bufferView": 1,
      "byteOffset": 108104,
      "componentType": 5126,
      "count": 128,
      "max": [
        0.8425158262252808,
        0.9951841235160828
      ],
      "min": [
        0.004830449819564819,
        0.26428478956222534
      ],
      "type": "VEC2"
    },
    {
      "bufferView": 1,
      "byteOffset": 109128,
      "componentType": 5126,
      "count": 128,
      "max": [
        0.8425158262252808,
        0.9951841235160828
      ],
      "min": [
        0.004830449819564819,
        0.26428478956222534
      ],
      "type": "VEC2"
    },
    {
      "bufferView": 1,
      "byteOffset": 110152,
      "componentType": 5126,
      "count": 128,
      "max": [
        0.8425158262252808,
        0.9951841235160828
      ],
      "min": [
        0.004830449819564819,
        0.26428478956222534
      ],
      "type": "VEC2"
    },
    {
      "bufferView": 1,
      "byteOffset": 111176,
      "componentType": 5126,
      "count": 128,
      "max": [
        0.8425158262252808,
        0.9951841235160828
      ],
      "min": [
        0.004830449819564819,
        0.26428478956222534
      ],
      "type": "VEC2"
    },
    {
      "bufferView": 0,
      "byteOffset": 41040,
      "componentType": 5125,
      "count": 456,
      "type": "SCALAR"
    }
  ],
  "asset": {
    "extras": {
      "author": "mortalityrexotable (https://sketchfab.com/mortalityrexotable)",
      "license": "CC-BY-4.0 (http://creativecommons.org/licenses/by/4.0/)",
      "source": "https://sketchfab.com/3d-models/car-apocalyptic-free-gameready-pbr-lowpoly-model-4900285479474e8dacbeae2ec6622367",
      "title": "CAR apocalyptic free gameready pbr lowpoly model"
    },
    "generator": "Sketchfab-16.72.0",
    "version": "2.0"
  },
  "bufferViews": [
    {
      "buffer": 0,
      "byteLength": 42864,
      "name": "floatBufferViews",
      "target": 34963
    },
    {
      "buffer": 0,
      "byteLength": 112200,
      "byteOffset": 42864,
      "byteStride": 8,
      "name": "floatBufferViews",
      "target": 34962
    },
    {
      "buffer": 0,
      "byteLength": 67320,
      "byteOffset": 155064,
      "byteStride": 12,
      "name": "floatBufferViews",
      "target": 34962
    },
    {
      "buffer": 0,
      "byteLength": 44880,
      "byteOffset": 222384,
      "byteStride": 16,
      "name": "floatBufferViews",
      "target": 34962
    }
  ],
  "buffers": [
    {
      "byteLength": 267264,
      "uri": "scene.bin"
    }
  ],
  "images": [
    {
      "uri": "textures/car01_baseColor.png"
    },
    {
      "uri": "textures/car01_metallicRoughness.png"
    },
    {
      "uri": "textures/car01_normal.png"
    },
    {
      "uri": "textures/Material_109_baseColor.png"
    }
  ],
  "materials": [
    {
      "doubleSided": true,
      "name": "car01",
      "normalTexture": {
        "index": 2
      },
      "occlusionTexture": {
        "index": 1
      },
      "pbrMetallicRoughness": {
        "baseColorTexture": {
          "index": 0
        },
        "metallicFactor": 0.0,
        "metallicRoughnessTexture": {
          "index": 1
        }
      }
    },
    {
      "alphaMode": "BLEND",
      "doubleSided": true,
      "name": "Material_109",
      "normalTexture": {
        "index": 2
      },
      "occlusionTexture": {
        "index": 1
      },
      "pbrMetallicRoughness": {
        "baseColorTexture": {
          "index": 3
        },
        "metallicFactor": 0.0,
        "metallicRoughnessTexture": {
          "index": 1
        }
      }
    }
  ],
  "meshes": [
    {
      "name": "Object_0",
      "primitives": [
        {
          "attributes": {
            "NORMAL": 1,
            "POSITION": 0,
            "TANGENT": 2,
            "TEXCOORD_0": 3,
            "TEXCOORD_1": 4,
            "TEXCOORD_2": 5,
            "TEXCOORD_3": 6,
            "TEXCOORD_4": 7
          },
          "indices": 8,
          "material": 0,
          "mode": 4
        }
      ]
    },
    {
      "name": "Object_1",
      "primitives": [
        {
          "attributes": {
            "NORMAL": 10,
            "POSITION": 9,
            "TANGENT": 11,
            "TEXCOORD_0": 12,
            "TEXCOORD_1": 13,
            "TEXCOORD_2": 14,
            "TEXCOORD_3": 15,
            "TEXCOORD_4": 16
          },
          "indices": 17,
          "material": 1,
          "mode": 4
        }
      ]
    }
  ],
  "nodes": [
    {
      "children": [
        1
      ],
      "matrix": [
        1.0,
        0.0,
        0.0,
        0.0,
        0.0,
        2.220446049250313e-16,
        -1.0,
        0.0,
        0.0,
        1.0,
        2.220446049250313e-16,
        0.0,
        0.0,
        0.0,
        0.0,
        1.0
      ],
      "name": "Sketchfab_model"
    },
    {
      "children": [
        2
      ],
      "name": "root"
    },
    {
      "children": [
        3
      ],
      "matrix": [
        1.0,
        0.0,
        0.0,
        0.0,
        0.0,
        2.220446049250313e-16,
        1.0,
        0.0,
        0.0,
        -1.0,
        2.220446049250313e-16,
        0.0,
        0.0,
        0.0,
        0.0,
        1.0
      ],
      "name": "GLTF_SceneRootNode"
    },
    {
      "children": [
        4
      ],
      "name": "untitled.glb_0"
    },
    {
      "children": [
        5
      ],
      "matrix": [
        -2.8262865381378788e-09,
        0.0,
        -0.02103535644710064,
        0.0,
        0.0,
        0.02103535644710064,
        0.0,
        0.0,
        0.02103535644710064,
        0.0,
        -2.8262865381378788e-09,
        0.0,
        0.05794999375939369,
        0.0,
        11.854930877685547,
        1.0
      ],
      "name": "car01fbx_1"
    },
    {
      "children": [
        6
      ],
      "matrix": [
        1.0,
        0.0,
        0.0,
        0.0,
        0.0,
        1.0,
        0.0,
        0.0,
        0.0,
        0.0,
        1.0,
        0.0,
        0.00012170016998425126,
        0.0,
        0.0,
        1.0
      ],
      "name": "RootNode004_2"
    },
    {
      "children": [
        7,
        9
      ],
      "matrix": [
        9.433641707801144e-07,
        0.0,
        2.539999485015869,
        0.0,
        0.0,
        2.5399999618530273,
        0.0,
        0.0,
        -2.539999485015869,
        0.0,
        9.433641707801144e-07,
        0.0,
        6.057585051166825e-05,
        77.88819885253906,
        0.6636141538619995,
        1.0
      ],
      "name": "low_3"
    },
    {
      "children": [
        8
      ],
      "matrix": [
        1.0,
        0.0,
        0.0,
        0.0,
        0.0,
        1.0,
        0.0,
        0.0,
        0.0,
        0.0,
        1.0,
        0.0,
        0.0,
        0.0,
        -1.4578100490325596e-05,
        1.0
      ],
      "name": "low_car01_0_4"
    },
    {
      "mesh": 0,
      "name": "Object_8"
    },
    {
      "children": [
        10
      ],
      "matrix": [
        1.0,
        0.0,
        0.0,
        0.0,
        0.0,
        1.0,
        0.0,
        0.0,
        0.0,
        0.0,
        1.0,
        0.0,
        0.0,
        0.0,
        -1.4578100490325596e-05,
        1.0
      ],
      "name": "low_Material_#109_0_5"
    },
    {
      "mesh": 1,
      "name": "Object_10"
    }
  ],
  "samplers": [
    {
      "magFilter": 9729,
      "minFilter": 9987,
      "wrapS": 10497,
      "wrapT": 10497
    }
  ],
  "scene": 0,
  "scenes": [
    {
      "name": "Sketchfab_Scene",
      "nodes": [
        0
      ]
    }
  ],
  "textures": [
    {
      "sampler": 0,
      "source": 0
    },
    {
      "sampler": 0,
      "source": 1
    },
    {
      "sampler": 0,
      "source": 2
    },
    {
      "sampler": 0,
      "source": 3
    }
  ]
}
